<svg xmlns="http://www.w3.org/2000/svg" viewBox="0 0 400 300" width="406" height="306" class="illustration styles_illustrationTablet__1DWOa"><title>PP_</title><g style="isolation: isolate;"><g id="Layer_2" data-name="Layer 2"><path d="M187.22,282.44l-165.77-98c-5.28-3-9.8-7.83-4.66-11L183.16,77.57c2.5-1.55,6.29-2.56,8.82-1.09l174,101c5.28,3.06,6.22,11.63.94,14.69L209.07,282.28A22,22,0,0,1,187.22,282.44Z" fill="#88b2d8"></path><path d="M214.59,111.47a83.84,83.84,0,0,1-13.83-4.63,7.74,7.74,0,0,0-3.5-.68,24.57,24.57,0,0,0-1.1-2.33c-.5-.93-1.06-1.84-1.55-2.77s-.61-1-.64-1.82c-.23-6.93-9.95-7.65-11.72-2.1l-2,.61a9,9,0,0,1-.36-1.84l0,21.67a9,9,0,0,0,.36,1.84l2.75-.86,1.52.51,0,12.31a6.63,6.63,0,0,0,.4.59c1.22,1.43,2.56,2.85,3.63,4.31a2.12,2.12,0,0,0,2,1.29,2.28,2.28,0,0,0,1.29-.11l0,12.63a1.14,1.14,0,0,0,.12.47c.4.87,1.27,1.39,3.29,1.45a5,5,0,0,1,1.37.19c.35.13.75.37.75.55l0-17.91a1.72,1.72,0,0,1,1.14-1.44,4.12,4.12,0,0,1,.51-.17l0,12.51a.94.94,0,0,0,.11.4,1,1,0,0,1,.1.43l0-13.4a10.66,10.66,0,0,1,2.34-.23l0,7.13c0,.27.31.58.46.86a2.1,2.1,0,0,1,.27,1l0-9q2,0,4,.1a13.38,13.38,0,0,1,2.26.17,23.28,23.28,0,0,1,2.49.83l0-11.09.44.12C218.9,124.9,222.1,113.33,214.59,111.47Z" fill="#7c2927"></path><path d="M264.84,104.74a5,5,0,0,1-1.24.24,8.82,8.82,0,0,0-1.35.14l0,.05,0-9.41a.67.67,0,0,1-.41.53,12.9,12.9,0,0,1-2.31.44,6.81,6.81,0,0,0-3.33-2.63V87.77a1.13,1.13,0,0,0-.23.65V94a5.48,5.48,0,0,0-5.67,1.48c-.64.63-1.28,1.25-1.92,1.86l0-7a.69.69,0,0,0-.17-.43.53.53,0,0,1-.13-.32l0,8c-5,4.72-9.57,9.08-10.16,16.6-.25,3.23,2.94,6,6,6a5.66,5.66,0,0,0,3.88-1.48,8.74,8.74,0,0,1-1.12,1.89,5.05,5.05,0,0,1-1.29,1h-.07a6.19,6.19,0,0,0-1.75.38,14.76,14.76,0,0,0-1.76.51c-.41.18-.56.42-.56.68v.13c-1.34.43-2.63.81-3.52,1.17-5.94,2.41-4.7,11,.11,11.95l0,16.47a.56.56,0,0,1,.26-.51,3.28,3.28,0,0,1,1.12-.14,12.51,12.51,0,0,1,1.39.18,3.93,3.93,0,0,0,.49-1.14s0-.06,0-.09v-3.21a3.39,3.39,0,0,0,.59-1.63V144.3l.08,0a14.78,14.78,0,0,1,1.76-.51,6.19,6.19,0,0,1,1.75-.38c1,.07,2,.28,2.13.85a12.7,12.7,0,0,1,.24,1.45,1,1,0,0,1,0,.13V146a.86.86,0,0,0,0,.28c.28.84.79,1,2.36.63a2.15,2.15,0,0,1,.55.2v1c0,.1.05.21.21.3v0c.8-.36,1.24-.76,1.24-1.23v-1.16a3.24,3.24,0,0,1,.37-1l0,7.36s0,0,0,.06a6.6,6.6,0,0,0,.25.85.61.61,0,0,1,0,.1l0-8.77a7.1,7.1,0,0,1,2.3-1.9c.55-.31.63-.81.79-1.24a34.18,34.18,0,0,1,1.16-3.25,2.74,2.74,0,0,0,.33-1.25V133.9c.18-.1.39-.2.65-.3s.62-.36.62-.54a1.15,1.15,0,0,1,.32-.72v1.52a2,2,0,0,0,0,.21l0,21.67a2,2,0,0,1,.13-.7v-1.32h0V155c.21-.09.32-.21.32-.36v-1.38c.48-.62,1-1.24,1.49-1.86a2,2,0,0,1,.73-.48,11.63,11.63,0,0,1,1.21-.37l0-20.73s0,0,0-.05v-.91a.84.84,0,0,0,.3-.56v-1.64l.53,0a5,5,0,0,0,1.24-.24c.69-.46,1.06-.8,1.07-1.12l0-21.67C265.91,103.94,265.54,104.28,264.84,104.74Z" fill="#7c2927"></path><path d="M307.73,157.26a2.17,2.17,0,0,1-1.26-.65c-.9-1.3-1.72-2.61-2.49-3.93a.66.66,0,0,1-.11-.32l0,21.67a.66.66,0,0,0,.11.32c.77,1.32,1.59,2.63,2.49,3.93a2.17,2.17,0,0,0,1.26.65c1.84.3,3.75.51,6,.81l0-21.67C311.47,157.77,309.56,157.56,307.73,157.26Z" fill="#7c2927"></path><path d="M296.5,154.55v.75l-.11.07v1.21a5.93,5.93,0,0,0-1-1.24,17.35,17.35,0,0,0-1.44-4.43l-.17-.33v-1.24c0,.38-.06.72-.1,1q-.27-.49-.58-1v-3.09a.59.59,0,0,1-.13.35,1.45,1.45,0,0,0-.32.87v1.25a10.57,10.57,0,0,0-1-1.12V144l-1.39.39v2.15c-.16-.1-.32-.2-.48-.29a8.9,8.9,0,0,0-3.49-1,6.16,6.16,0,0,0-1.72-.1v-4.07c0,.11-.12.24-.36.37-1.39.75-.78,1.87-2.21,2.6a5.17,5.17,0,0,0-3.5.66c-2.4,1.41-3.69,5.08-2,7.53a8.26,8.26,0,0,0,4.22,3.44c.07,0,.51.13,1.1.25l0,9.87c1.44-.64,1-1.64,1.94-2.4A4.82,4.82,0,0,0,284,165a5.62,5.62,0,0,0-1.63,1.75c-5,8.23-14.63,6.25-22.62,7.27a24.12,24.12,0,0,0-10.48,3.65c-1.7,1.12-3.83,3.62-6.08,5.32a4.69,4.69,0,0,0-2.9-2c-2.65-.6-6.27.81-6.77,3.84-.06.38-.1.75-.15,1.12a5.18,5.18,0,0,0-3.68-4c-14.66-4.11-33.44-5-46.74,3.52a5.34,5.34,0,0,0-2.25,6.35c-5,2.63-11,3.58-16.55,3.94a5.38,5.38,0,0,0-4,2.09c-1.44-.07-2.83-.19-3.91-.18-2.93,0-5.85,0-8.78,0a123.05,123.05,0,0,0-14-.15l-1.88-.37-5.1-1a4.55,4.55,0,0,0-5.08-3.5,83.15,83.15,0,0,1-19.56-.63,5.63,5.63,0,0,0-4.64,1.27l0-11.18c0-.45-.6-.77-1.27-1.15a4.06,4.06,0,0,1-1-.84,2.05,2.05,0,0,1-.31-.49v-.68c0-.15-.28-.23-1.09-.45l-1.26-.34,0-15.35c0-.18-.21-.32-.6-.47l-3-1.15v-3.06a.88.88,0,0,0-.38-.63,3,3,0,0,1-.78-.85.39.39,0,0,1,0-.16v4.16c-.36-.23-.56-.47-.56-.72l0,9.86-2-2c-.41-.41-.78-.83-1-1.11l0,9.73-.23,0,0,21.67a7.36,7.36,0,0,1,2-.24l0,19.38c0,.22.36.54.72.66a4.71,4.71,0,0,1,.6.24v1l.6.28c3.62,1.7,7.49-.49,11.3,1,.64.25,1.37.95,1,1.49,1.44-1.84,15-1.14,17.64-1.54,3.17-.48,11.86,0,14.08,2.8.23.29.14.71.18,1.07.14,1.31,1.82,1.74,3.13,1.81a69.76,69.76,0,0,0,15.12-.87c1.74-.29,3.59-2.1,5.89-2.34,3.53-.36,7.08,0,10.61-.27,6.68-.5,12.66-4.69,19.33-4.66.23-2,1.83-3.19,3.78-3.51s4.09-.14,5.65-1.33S197,210,198,208.43c3-5.11,10.59-4.11,15.66-4.83,3.44-.49,9.84.41,11.24,4.23a8.41,8.41,0,0,0,.87,2.26c1,1.33,3.15,1.16,4.46.15a3.58,3.58,0,0,1,1.34-.84,2.14,2.14,0,0,1,1.38.28c2.27,2.35,5.73,3.12,9.06,3a10.4,10.4,0,0,0,6.82-2.57l.3.07a3.29,3.29,0,0,0,2.57-.36.16.16,0,0,0,0-.11v-4l.23,0v-.42a1.18,1.18,0,0,1,.72-.66,12,12,0,0,1,2.1-.57c.51-.63,1-1.27,1.46-1.91a1.51,1.51,0,0,0,.22-.65.75.75,0,0,1,.48-.56,3.62,3.62,0,0,1,1.24-.22,10.66,10.66,0,0,0,2.18-.43c1-.27,2.06-.58,3.08-.87a6.75,6.75,0,0,0,.95,1c1,.66,2.23.47,3.66.37a12.29,12.29,0,0,0,4-.85,4.65,4.65,0,0,0,1.23-.77,3.6,3.6,0,0,1,.92-.64,2.29,2.29,0,0,1,.84-.2,5,5,0,0,0,1.89-.4,11.06,11.06,0,0,0,1.32-.78c.16-.07.45-.1,1,.17a.67.67,0,0,1,0,.09v.4c0,.18,0,.34.22.4a7,7,0,0,0,3,.28v3.2c0,1,1.63,2,3.9,2a7.06,7.06,0,0,0,2.35-.55,3.88,3.88,0,0,0,1.19-.78v-.11a3,3,0,0,0,.33-1l0-13.12,0,0c.82-.55,2-1,2.9-1.51,1.33-.73,2.31-1.52,2.31-2.46v-1.46l.11-.22c.28-.55.76-1.08.76-1.64V179c.55-.24.74-.49.74-.75v-2.5a1,1,0,0,0,.35-.23l0-21.67C297.34,154.13,296.5,154.3,296.5,154.55Zm-11.89,2.6a3.57,3.57,0,0,1,.12.48,7.3,7.3,0,0,1-.13,2.8Z" fill="#7c2927"></path><path d="M304.13,152a3.29,3.29,0,0,1,1.43-.1,4.51,4.51,0,0,1,1.55.3c1.71,1,4.2,1.8,4.69,3.24a12.38,12.38,0,0,0,1.91,2.61c-2.25-.3-4.15-.51-6-.81a2.17,2.17,0,0,1-1.26-.65c-.9-1.3-1.72-2.61-2.49-3.93C303.79,152.37,303.85,152.15,304.13,152Z" fill="#f76159"></path><path d="M187.16,90.56c6.43-2.5,13-2.37,19.63-.74,5.42,1.33,10.85,3.16,16.43,2.92,3.84-.16,7.6-1.36,11.46-1.35,5,0,7.88,2.65,12.81-.16a1.53,1.53,0,0,0,.64-.55,3,3,0,0,0,.19-.78,2.92,2.92,0,0,1,.82-1.32,6.15,6.15,0,0,1,3.35-1.9c3.2-.52,3.53,2.4,5.52,4,1,.85,2.21,1.62,2.55,2.63.26.78,1.16,1.51,1.64,2.29.11.19-.07.53-.37.66a13.44,13.44,0,0,1-2.59.48A4.09,4.09,0,0,0,258,97a.51.51,0,0,0-.34.7,1.17,1.17,0,0,1-.28,1c-.62.83-.44.92,1.12,1.44,2.11.72,4.16,1.49,6,2.33a2.31,2.31,0,0,1,1.37,1.13c-.93,1.32-2.23,1.29-3.77,1.59a2.51,2.51,0,0,1,0,3.56,5.9,5.9,0,0,1-1.34.81,13.29,13.29,0,0,0-3.81,2.95,1.16,1.16,0,0,0-.28.44,1.32,1.32,0,0,0,.06.68,7.7,7.7,0,0,1-1.72,7c-1.15,1.27-2.83,2.32-3,4a4.46,4.46,0,0,1-.22,1.46c-.22.44-.93.68-1.2.26.54-.31-.17-1.14-.8-1.1s-1.36.32-1.8-.13-.21-1-.26-1.59a2.41,2.41,0,0,0-2.32-1.92,7,7,0,0,0-3.15.79c-.4.17-.85.4-.94.83a1.85,1.85,0,0,0,.16.89c.91,3-.21,6.66-3.41,6.94-.31,0,2.31,1.91,3,2,2,.3,3.85-1.41,6-.87.79.2,1.49.68,2.26.93a2.09,2.09,0,0,0,2.27-.39c.44-.54.4-1.33.74-1.95a3.53,3.53,0,0,1,2.51-1.36l5-1.09c.93-.2,2.09-.32,2.63.46a5.64,5.64,0,0,0-3.62,4.32,4.38,4.38,0,0,0,1.15,3.86c1.89,1.79,8.23.73,10.82,1a53.59,53.59,0,0,1,13.3,3,9.94,9.94,0,0,1-1.79,2.94,9.81,9.81,0,0,1,9,0c-.23-.16-.51.22-.4.48s.4.39.63.54c.76.52,3.1,10.82,5.8,8.88l-.86.61a4.26,4.26,0,0,1,.43,1.84,1.46,1.46,0,0,1-1.1,1.38c1.2-.17-1.07,5.82-1.57,6.42-1.36,1.64-4.67,3-6.73,3.42L288.7,169a23.37,23.37,0,0,0-6.69,6.45l2,.92a4.8,4.8,0,0,1-5.09-.78c-3.74-.05-6.79,3.45-10.53,3.52-2,0-3.91-.93-5.92-1-2.89-.09-5.47,1.68-7.82,3.37l-6.39,4.61a6,6,0,0,0,3.17,1.77c-5.81,2.71-10.65,1.56-16.54.4-2.18-.43-7.54,2.09-8.93.37a5.05,5.05,0,0,1-.67-1.82,6.78,6.78,0,0,0-4.71-4.22,20,20,0,0,0-6.55-.46c-4.06.16-8.45.2-12.32,1.57-4.46,1.58-3,5-6.22,7.67-1.5,1.27-3.68,1.12-5.63,1.37-2.93.38-2.68,2.48-4.39,3.59-1.08.7-3.91.83-5.23,1.21-9.17,2.63-18.59,3.53-28.18,4.73-.93.12-2.11.53-2.07,1.47,0,.28-13.89,1.24-15.57.41-.25-.12-.88-.06-1.23-.16-.61-.18-1.12-.42-1.67-.63.48-.18,1-.33,1.42-.52a4.2,4.2,0,0,0,1.39-.83c-2.14-1.55-8.23-2.08-11-2.6-6.15-1.13-13.17.34-19.33.83a9.56,9.56,0,0,1-3.3-.12,27.13,27.13,0,0,1-3.2-1.5c-2.06-.87-4-.48-6.09-.5,0,0-5-.12-4.37-.62a1.3,1.3,0,0,0,.37-.49,1.71,1.71,0,0,0-1.06-.66c-.42-.14-.83-.55-.69-.75.8-1.16,1.76-2.3,2.61-3.37a10.77,10.77,0,0,0,2.16.12,4,4,0,0,0,.73-.24c.86-.38,1.09-1,.64-1.56-.22-.27-.54-.53-.61-.81a.61.61,0,0,1,.31-.67c.29-.1.5-.18.7-.27A3.61,3.61,0,0,0,94.09,187a17,17,0,0,1,2.76-4.16c.77-.83,0-1.23-1-1.76a4.06,4.06,0,0,1-1-.84,4.51,4.51,0,0,1-.51-.84c.34-.44.33-.43-.89-.78-1.43-.4-2.94-.76-4.25-1.23-1.62-.58-2.85-1.53-5.67-.83.15-.35.14-.55.32-.71,1-.9,2-1.79,3.11-2.68,1.57-.49,2.54-.72,3.4-1,.33-.14.43-.36.61-.53a5.65,5.65,0,0,0-1.25-.21,2.14,2.14,0,0,1-2-.57c-.94-1-2-2-3-2.95-.41-.41-.78-.83-1-1.11,2.86-1,6.49-1.45,8.6-3.77.14-.16-3.84-1.74-4.3-1.93-1.49-.58-1.65-1.33-.34-2a1.88,1.88,0,0,0,.85-.71c-3.48-3.42,3.56-3,5.55-2.9,4.58.27,9.13-.83,13.7-.48,4.38.33,6.66,3.07,10.57,4a7.84,7.84,0,0,0,4.23-.53c3.19-1.08,6.3-2.55,9.63-3,4.14-.59,8.33.38,12.51.46,6.36.13,11-2.31,16.7-4.63s12.15-2.07,17.8-4.59l.74-.36a4.16,4.16,0,0,1,1.09-.21,9.08,9.08,0,0,0,1.71-.17,4.6,4.6,0,0,0,1.68-1.19c3-4.29,8.73-5,11.38-9a9.29,9.29,0,0,0,1.2-4.07,1.32,1.32,0,0,0,0-.68,1.1,1.1,0,0,0-.75-.54c-1.11-.32-2.67-.5-3.59-1.27a1.32,1.32,0,0,1-.4-1.63,1.56,1.56,0,0,1,1-.6c1.76-.47,4,.14,5.15-1.3.58-.74.6-1.81,1.18-2.55a20.64,20.64,0,0,1,1.58-1.34c2.46-2.55,3.42-11.3,9.58-9.49a30.7,30.7,0,0,0-10-1.21c-1.22.06-2.65.32-3.18,1.42a4.25,4.25,0,0,1-.5,1.07c-.56.63-1.59.29-2.42.43-1.42.24-2.32,1.92-3.76,2-1.15.07-2.07-.91-2.8-1.81a40.91,40.91,0,0,1-3.46-4.5c1.17-.25,2.37-.39,3.56-.64a3.79,3.79,0,0,0,.73-.23,12.7,12.7,0,0,0,2.41-3.72,7.59,7.59,0,0,1-3.57-2.46c-1-1.41-1.44-3.22-2.58-4.54s-3.61-1.8-4.44-.26a1.83,1.83,0,0,1-.79-2.28,4.58,4.58,0,0,1,1.71-2A22.53,22.53,0,0,1,187.16,90.56Z" fill="#f76159"></path><path d="M216.3,165.73l8,4.41s-.88-12.11-1-12.35-5-4.81-5-4.81-2.32-.16-2.08-.4a15.7,15.7,0,0,1-1,1.36Z" fill="#3d1414"></path><polygon points="235.06 180.97 260.07 166.06 260.07 144.57 234.82 158.6 235.06 180.97" fill="#68e1fd"></polygon><polygon points="235.06 180.97 260.07 166.06 260.07 144.57 234.82 158.6 235.06 180.97" fill="#344e4f" opacity="0.26"></polygon><path d="M212.62,168l3.69-2.24V153s-5.26,2.16-5.08,2.41,1,8.18,1,8.18Z" fill="#344e4f"></path><path d="M200.59,139.6v21.57l12,6.81v-10.9s.48-3.85,4.89-2,4,7.78,4,7.78v10.58L235.06,181V157.88Z" fill="#68e1fd"></path><path d="M194.87,136.79s40,23.3,40.19,23.2,30-17.21,30-17.21l-18.71-11.14-29.72-5.91Z" fill="#344e4f"></path><path d="M209.62,126.32c-.43.11-14.75,10.48-14.75,10.48L216.68,131Z" fill="#344e4f" style="mix-blend-mode: multiply;"></path><polyline points="248.64 138.08 265.1 142.78 248.32 132.57" fill="#344e4f" style="mix-blend-mode: multiply;"></polyline><polyline points="211.23 129.31 211.23 132.25 235.06 145.99 248.64 138.08 248.64 134.66" fill="#344e4f" style="mix-blend-mode: multiply;"></polyline><path d="M211.87,123.54s-6.73,3.31-6.41,3.42,29,16.89,29,16.89l19.88-10.69-23.75-13.72" fill="#344e4f"></path><polyline points="235.06 136.79 211.87 123.54 218.28 114.67 227.47 117.55 247.57 129.84" fill="#344e4f"></polyline><polygon points="235.06 136.79 247.57 129.84 241.31 127.71 235.06 136.79" fill="#344e4f" style="mix-blend-mode: multiply;"></polygon><path d="M241.59,168.84c0-.17,0-3.61,0-3.61s-.16-2.24,1.37-2.45,1.44,1.76,1.44,1.76v2.62Z" fill="#1e4156"></path><path d="M246.33,166.06c0-.17,0-3.61,0-3.61s-.16-2.24,1.37-2.45,1.44,1.76,1.44,1.76v2.62Z" fill="#1e4156"></path><path d="M251,163.52c0-.17,0-3.61,0-3.61s-.16-2.24,1.37-2.45,1.44,1.76,1.44,1.76v2.62Z" fill="#1e4156"></path><polygon points="200.59 161.16 200.59 157.52 212.62 164.29 212.62 167.98 200.59 161.16" fill="#344e4f"></polygon><polygon points="221.51 173.31 221.51 169.66 235.02 177.27 235.06 181.25 221.51 173.31" fill="#344e4f"></polygon><path d="M235,177.27l25.05-15s.24,3.63,0,3.77l-25,15.19Z" fill="#1e4156"></path><polygon points="235.06 136.79 211.87 123.54 209.92 124.51 235.06 136.79" fill="#344e4f" style="mix-blend-mode: multiply;"></polygon><path d="M173.69,162.61v4.17a.5.5,0,0,0,1,0v-4.17A.5.5,0,0,0,173.69,162.61Z" fill="#68e1fd"></path><path d="M175.94,163v6.83a.5.5,0,0,0,1,0V163A.5.5,0,0,0,175.94,163Z" fill="#68e1fd"></path><path d="M177.69,162.78v9a.5.5,0,0,0,1,0v-9A.5.5,0,0,0,177.69,162.78Z" fill="#68e1fd"></path><path d="M180,161.61v7a.5.5,0,0,0,1,0v-7A.5.5,0,0,0,180,161.61Z" fill="#68e1fd"></path><ellipse cx="177.6" cy="160.91" rx="5.75" ry="4.37" fill="#68e1fd"></ellipse><path d="M172.15,159.53a3.42,3.42,0,0,0-.3,1.38c0,2.41,2.57,4.37,5.75,4.37s5.75-2,5.75-4.37a3.38,3.38,0,0,0-.19-1.1A8.51,8.51,0,0,1,172.15,159.53Z" fill="#344e4f" opacity="0.51"></path><path d="M111.73,128.17v4.17a.5.5,0,0,0,1,0v-4.17A.5.5,0,0,0,111.73,128.17Z" fill="#68e1fd"></path><path d="M114,128.59v6.83a.5.5,0,0,0,1,0v-6.83A.5.5,0,0,0,114,128.59Z" fill="#68e1fd"></path><path d="M115.73,128.34v9a.5.5,0,0,0,1,0v-9A.5.5,0,0,0,115.73,128.34Z" fill="#68e1fd"></path><path d="M118.06,127.17v7a.5.5,0,0,0,1,0v-7A.5.5,0,0,0,118.06,127.17Z" fill="#68e1fd"></path><ellipse cx="115.65" cy="126.48" rx="5.75" ry="4.37" fill="#68e1fd"></ellipse><path d="M110.19,125.1a3.42,3.42,0,0,0-.3,1.38c0,2.41,2.57,4.37,5.75,4.37s5.75-2,5.75-4.37a3.38,3.38,0,0,0-.19-1.1A8.51,8.51,0,0,1,110.19,125.1Z" fill="#344e4f" opacity="0.51"></path><polygon points="136.48 147.54 157.65 159.11 157.65 164.69 136.48 152.91 136.48 147.54" fill="#344e4f"></polygon><polygon points="136.48 137.24 157.65 148.82 157.65 154.4 136.48 142.62 136.48 137.24" fill="#344e4f"></polygon><polygon points="164.68 187.61 158.48 183.54 152.28 187.97 149.73 188.04 149.73 189.79 158.94 195.04 167.23 189.29 167.23 187.54 164.68 187.61" fill="#344e4f" opacity="0.51"></polygon><polygon points="149.73 188.04 158.94 193.29 167.23 187.54 158.48 181.79 149.73 188.04" fill="#68e1fd"></polygon><rect x="156.68" y="146.88" width="4.8" height="37.82" fill="#68e1fd"></rect><path d="M156.41,182.21s3,2.34,5.07,0v-1.67s.92,0,1.25,1.44v6.22s-.55,1.67-3.65,1.58-3.94-2.08-3.94-2.08V182s.08-1.45,1.25-1.45Z" fill="#68e1fd"></path><path d="M132.41,168.9s3,2.34,5.07,0v-1.67s.92,0,1.25,1.44v6.22s-.55,1.67-3.65,1.58-3.94-2.08-3.94-2.08v-5.72s.08-1.45,1.25-1.45Z" fill="#68e1fd"></path><path d="M156.41,182.21s3,2.34,5.07,0v-1.67s.92,0,1.25,1.44v6.22s-.55,1.67-3.65,1.58-3.94-2.08-3.94-2.08V182s.08-1.45,1.25-1.45Z" fill="#344e4f" opacity="0.51"></path><g opacity="0.51"><polygon points="125.6 175.66 134.81 180.91 143.1 175.16 134.35 169.41 125.6 175.66" fill="#344e4f"></polygon><polygon points="143.1 175.16 143.1 173.41 125.6 173.91 125.6 175.66 143.1 175.16" fill="#344e4f"></polygon></g><polygon points="125.6 173.91 134.81 179.16 143.1 173.41 134.35 167.66 125.6 173.91" fill="#68e1fd"></polygon><rect x="132.68" y="133.57" width="4.8" height="37.82" fill="#68e1fd"></rect><path d="M132.41,168.9s3,2.34,5.07,0v-1.67s.92,0,1.25,1.44v6.22s-.55,1.67-3.65,1.58-3.94-2.08-3.94-2.08v-5.72s.08-1.45,1.25-1.45Z" fill="#344e4f" opacity="0.51"></path><path d="M180,154.13c-46.66-20.68-63.05-36.81-63.54-37.18-.21-.16-1.14.36-2.14,1h-2.86v2c25.46,22.42,66.89,38.77,66.89,38.77l4.36-3.39v-2Z" fill="#344e4f"></path><path d="M111.44,118s4.5-3.37,5-3,17.5,17.13,66.25,38.38l-4.36,3.39S136.9,140.37,111.44,118Z" fill="#68e1fd"></path></g></g></svg>