<svg xmlns="http://www.w3.org/2000/svg" xmlns:xlink="http://www.w3.org/1999/xlink" viewBox="0 0 400 300" width="406" height="306" class="illustration styles_illustrationTablet__1DWOa"><defs><linearGradient id="linear-gradient" x1="7.06" y1="180.64" x2="392.94" y2="180.64" gradientUnits="userSpaceOnUse"><stop offset="0" stop-color="#4887ed"></stop><stop offset="1" stop-color="#0071bc"></stop></linearGradient><linearGradient id="linear-gradient-2" x1="235.74" y1="276.47" x2="229.28" y2="265.39" gradientUnits="userSpaceOnUse"><stop offset="0" stop-color="#fff" stop-opacity="0"></stop><stop offset="0.99" stop-color="#ffa86a"></stop></linearGradient><linearGradient id="linear-gradient-3" x1="217.27" y1="201.02" x2="210.04" y2="188.91" xlink:href="#linear-gradient-2"></linearGradient><linearGradient id="linear-gradient-4" x1="151.38" y1="240.23" x2="144.08" y2="228.01" xlink:href="#linear-gradient-2"></linearGradient><linearGradient id="linear-gradient-5" x1="279.56" y1="165.01" x2="272.33" y2="152.9" xlink:href="#linear-gradient-2"></linearGradient><linearGradient id="linear-gradient-6" x1="358.26" y1="202.27" x2="351.43" y2="190.55" xlink:href="#linear-gradient-2"></linearGradient></defs><title>PP</title><g style="isolation: isolate;"><g id="Layer_2" data-name="Layer 2"><path d="M194.28,291.14,14.56,184.93C8.84,181.71,3.93,176.44,9.51,173L189.88,69c2.71-1.68,6.82-2.78,9.57-1.18L388.11,177.34c5.72,3.32,6.75,12.6,1,15.93L218,291A23.9,23.9,0,0,1,194.28,291.14Z" fill="url(#linear-gradient)"></path><path d="M233.23,281.06c9.33-6.16,12.22-5.52,20.9-11.89-5.5-2.86-21.51-12.17-24.9-14.29L206.43,265l16.45,9.15C223,274.18,233.09,281.06,233.23,281.06Z" opacity="0.63" fill="url(#linear-gradient-2)" style="mix-blend-mode: multiply;"></path><polyline points="166.85 77.06 166.85 118.86 108.69 152.21 108.69 188.94" fill="none" stroke="#f2f2f2" stroke-miterlimit="10" stroke-width="3"></polyline><path d="M210.69,36.29c-.91-1.16-13.63-8.7-13.63-8.7v.07c-2.61-2.89-7.45-1.88-13.74,3.6,0,0-.22-6-7.42-7s-9.26,2.31-9.26,2.31-2.43-11.39-16.87-7.11c-13.12,3.89-11.26,17.07-11.26,17.07s-8.15-2-14.67,6.93a33.82,33.82,0,0,0-6,19.47s-13.71,5-15.45,17.43a30.55,30.55,0,0,0-.27,3.25l0,.32a37.28,37.28,0,0,0,.72,8,5.21,5.21,0,0,0,2.55,3.63l14.54,8.3a20.75,20.75,0,0,0-1.48-10.64l72-41.78s5.51-4.84,7.82-11.26l5.54-1.43S211.6,37.44,210.69,36.29Z" fill="#053855" opacity="0.1"></path><path d="M210.69,36.29c-.91-1.16-13.63-8.7-13.63-8.7v.07c-2.61-2.89-7.45-1.88-13.74,3.6,0,0-.22-6-7.42-7s-9.26,2.31-9.26,2.31-2.43-11.39-16.87-7.11c-13.12,3.89-11.26,17.07-11.26,17.07s-8.15-2-14.67,6.93a33.82,33.82,0,0,0-6,19.47s-13.71,5-15.45,17.43a30.55,30.55,0,0,0-.27,3.25l0,.32a37.28,37.28,0,0,0,.72,8,5.21,5.21,0,0,0,2.55,3.63l14.54,8.3a20.75,20.75,0,0,0-1.48-10.64l72-41.78s5.51-4.84,7.82-11.26l5.54-1.43S211.6,37.44,210.69,36.29Z" fill="#053855" opacity="0.1"></path><path d="M210.69,36.29c-.91-1.16-13.63-8.7-13.63-8.7v.07c-2.61-2.89-7.45-1.88-13.74,3.6,0,0-.22-6-7.42-7s-9.26,2.31-9.26,2.31-2.43-11.39-16.87-7.11c-13.12,3.89-11.26,17.07-11.26,17.07s-8.15-2-14.67,6.93a33.82,33.82,0,0,0-6,19.47s-13.71,5-15.45,17.43a30.55,30.55,0,0,0-.27,3.25l0,.32a37.28,37.28,0,0,0,.72,8,5.21,5.21,0,0,0,2.55,3.63l14.54,8.3a20.75,20.75,0,0,0-1.48-10.64l72-41.78s5.51-4.84,7.82-11.26l5.54-1.43S211.6,37.44,210.69,36.29Z" fill="#68e1fd"></path><path d="M210.69,36.29c-.91-1.16-13.63-8.7-13.63-8.7v.07c-2.61-2.89-7.45-1.88-13.74,3.6,0,0-.22-6-7.42-7s-9.26,2.31-9.26,2.31-2.43-11.39-16.87-7.11c-13.12,3.89-11.26,17.07-11.26,17.07s-8.15-2-14.67,6.93a33.82,33.82,0,0,0-6,19.47s-13.71,5-15.45,17.43a30.55,30.55,0,0,0-.27,3.25l0,.32a37.28,37.28,0,0,0,.72,8,5.21,5.21,0,0,0,2.55,3.63l14.54,8.3a20.75,20.75,0,0,0-1.48-10.64l72-41.78s5.51-4.84,7.82-11.26l5.54-1.43S211.6,37.44,210.69,36.29Z" fill="#053855" opacity="0.23"></path><path d="M127.78,104.82,204.3,60.39s9.39-8.23,8.81-17.45-6.68-10.72-15.84-2.74c0,0-.19-7.73-7.42-7s-10,5.48-10,5.48,1.44-13.74-13-9.46a20.09,20.09,0,0,0-14.42,16.25s-8.15-2-14.67,6.93a33.82,33.82,0,0,0-6,19.47s-13.71,5-15.45,17.43S120.55,107.37,127.78,104.82Z" fill="#68e1fd"></path><polyline points="166.85 157.52 166.85 118.86 238.85 77.06 238.85 107.12" fill="none" stroke="#f2f2f2" stroke-miterlimit="10" stroke-width="3"></polyline><path d="M207.12,213.3c16.84-11.13,26.58-12.22,42.24-23.72-9.92-5.17-26.79-15.24-32.92-19.07l-41.75,24.38,31.63,18.42Z" opacity="0.63" fill="url(#linear-gradient-3)" style="mix-blend-mode: multiply;"></path><polygon points="144.08 177.95 180.68 198.65 223.41 173.76 223.41 157.03 180.68 181.92 144.08 161 144.08 177.95" fill="#a0d700"></polygon><polygon points="144.08 161 187.63 136.01 223.41 157.03 180.68 181.92 144.08 161" fill="#cbed4f"></polygon><polygon points="180.68 181.92 180.68 198.65 223.41 173.76 223.41 157.03 180.68 181.92" fill="#93bc00"></polygon><path d="M141.14,252.62c17-11.22,26.8-12.33,42.6-23.93-10-5.22-27-15.37-33.2-19.24L108.43,234l31.9,18.58Z" opacity="0.63" fill="url(#linear-gradient-4)" style="mix-blend-mode: multiply;"></path><polygon points="77.56 216.96 114.47 237.84 157.57 212.74 157.57 195.86 114.47 220.96 77.56 199.86 77.56 216.96" fill="#a0d700"></polygon><polygon points="77.56 199.86 121.48 174.66 157.57 195.86 114.47 220.96 77.56 199.86" fill="#cbed4f"></polygon><polygon points="114.47 220.96 114.47 237.84 157.57 212.74 157.57 195.86 114.47 220.96" fill="#93bc00"></polygon><path d="M269.41,177.3c16.84-11.13,26.58-12.22,42.24-23.72-9.92-5.17-26.79-15.24-32.92-19.07L237,158.88l31.63,18.42Z" opacity="0.63" fill="url(#linear-gradient-5)" style="mix-blend-mode: multiply;"></path><polygon points="206.38 141.94 242.97 162.64 285.71 137.76 285.71 121.03 242.97 145.91 206.38 125 206.38 141.94" fill="#a0d700"></polygon><polygon points="206.38 125 249.93 100.01 285.71 121.03 242.97 145.91 206.38 125" fill="#cbed4f"></polygon><polygon points="242.97 145.91 242.97 162.64 285.71 137.76 285.71 121.03 242.97 145.91" fill="#93bc00"></polygon><path d="M357.94,205.6c9.33-6.16,8.3-3,17-9.37-5.5-2.86-22-13.16-25.37-15.28l-19.48,7.57,17.52,10.2C347.73,198.73,357.79,205.61,357.94,205.6Z" opacity="0.63" fill="url(#linear-gradient-6)" style="mix-blend-mode: multiply;"></path><polyline points="330.84 172.71 330.84 185.06 350.81 185.06 350.81 172.71" fill="#68e1fd"></polyline><ellipse cx="340.82" cy="172.71" rx="9.98" ry="4.91" fill="#68e1fd"></ellipse><ellipse cx="340.82" cy="172.71" rx="9.98" ry="4.91" opacity="0.73"></ellipse><ellipse cx="340.82" cy="185.54" rx="9.98" ry="4.91" fill="#68e1fd"></ellipse><path d="M352,144c-2.11-.86-5-3.73-7.58-3.64a29.84,29.84,0,0,0-1.54,7.58,68.75,68.75,0,0,0-.29,12.65q.09,1.41.23,2.81a2.24,2.24,0,0,0,.22.79q0,4.89,0,9.77a.31.31,0,0,0,.62,0q0-4.7,0-9.4a13.86,13.86,0,0,0,2.86-1.32,9.73,9.73,0,0,0,4-5.05c1.61-4.49.59-9.5,2.12-13.94C352.45,144.18,352.23,144.1,352,144Z" fill="#297600"></path><path d="M347.69,136.66a7.83,7.83,0,0,0-2.85,2.92,4.89,4.89,0,0,0-.45.87l-.09.19h0a13.05,13.05,0,0,0-.48,1.55,1.93,1.93,0,0,1,1.06-.84,2.64,2.64,0,0,1,1.67-.15,7,7,0,0,1,1.53.81c.71.43,1.4.91,2.1,1.36,3.31,2.1,7.71,2.32,10.27-.75,0-.12.06-.24.09-.37C360.91,140.16,355,132.41,347.69,136.66Z" fill="#5fad00"></path><path d="M359,143.93l.41-.27a.28.28,0,0,0-.08-.24,19.41,19.41,0,0,0-6.88-5.08,11.79,11.79,0,0,0-6.14-.6c-.22.26-.42.53-.62.8a10.67,10.67,0,0,1,7.07.59,19.77,19.77,0,0,1,6.15,4.73A.3.3,0,0,0,359,143.93Z" fill="#297600"></path><path d="M325.46,148.4a8.34,8.34,0,0,0-4.46,8c.24,5.89,9.94.14,12.52-4.83s3,2.12,3,2.12" fill="#297600"></path><path d="M334.2,146.34a17.58,17.58,0,0,0-5.39.75,13.07,13.07,0,0,0-3.35,1.31,10.81,10.81,0,0,0,1.94,1,5.9,5.9,0,0,1,3.14,2.25,4.48,4.48,0,0,1,.37.89c.59,1.94.08,4.29.88,6.24a5.57,5.57,0,0,0,4.72,3.81c2.74.17,4-2.46,4.53-4.73s1.28-5.38.42-7.71C340.45,147.44,336.78,146.46,334.2,146.34Z" fill="#5fad00"></path><path d="M337.8,155.53c-1.15-3.72-3.58-7.23-7.14-8.88h-.13l-.17.05-.65.17c4.15,1.54,6.76,5.63,7.82,9.81,1.36,5.35.9,11.14.92,16.61a.29.29,0,0,0,.57,0C339,167.46,339.54,161.19,337.8,155.53Z" fill="#297600"></path><path d="M137.33,195.28c-5.11-5.11-12.3-7.3-17.38-12.42a1,1,0,0,0-1.41,1.41c5.09,5.14,12.28,7.32,17.38,12.42A1,1,0,0,0,137.33,195.28Z"></path><path d="M112.8,190.94a6.19,6.19,0,0,1-1.8-2.82,1,1,0,0,0-1.67-.44,6.84,6.84,0,0,1-3.18,1.38c-1.27.22-.73,2.15.53,1.93a8.3,8.3,0,0,0,1.68-.5l-5.45,11.11c-.56,1.15,1.16,2.17,1.73,1l5.65-11.52a8.1,8.1,0,0,0,1.1,1.26C112.34,193.22,113.75,191.81,112.8,190.94Z" fill="#68e1fd"></path><path d="M138.12,194.38q-8.55-6.12-16.82-12.61c-2-1.59-4.25,1.74-2.23,3.32q8.27,6.5,16.82,12.61C138,199.21,140.21,195.88,138.12,194.38Z" fill="#68e1fd"></path><path d="M130.1,198.24q-5.48-4.69-11.33-8.9c-2.09-1.51-4.09,2-2,3.45q5.44,3.92,10.52,8.28C129.22,202.73,132.06,199.91,130.1,198.24Z" fill="#68e1fd"></path><path d="M123.61,202.31l-7-5.65a2.06,2.06,0,0,0-2.83,0,2,2,0,0,0,0,2.83l7,5.65a2.06,2.06,0,0,0,2.83,0A2,2,0,0,0,123.61,202.31Z" fill="#68e1fd"></path><path d="M117.31,206.83q-2.48-2.13-5.11-4.09a2,2,0,0,0-2.74.72,2,2,0,0,0,.72,2.74c1.47,1.1,2.9,2.26,4.3,3.46a2.05,2.05,0,0,0,2.83,0A2,2,0,0,0,117.31,206.83Z" fill="#68e1fd"></path><ellipse cx="183.75" cy="158.79" rx="15.12" ry="10.97" fill="#68e1fd"></ellipse><path d="M177.61,148.77l6.14,10,7.63-9.47S186,146.66,177.61,148.77Z" fill="#ff8f6f"></path><path d="M253.53,106.71q-15.23,9.28-30.17,19c-2.14,1.4-.21,4.9,2,3.49q14.93-9.75,30.17-19C257.68,108.87,255.74,105.37,253.53,106.71Z" fill="#007f68"></path><path d="M260,112.15q-15.23,9.28-30.17,19c-2.14,1.4-.21,4.9,2,3.49q14.93-9.75,30.17-19C264.13,114.31,262.19,110.81,260,112.15Z" fill="#68e1fd"></path><path d="M266.82,116.65q-15.23,9.28-30.17,19c-2.14,1.4-.21,4.9,2,3.49q14.93-9.75,30.17-19C271,118.81,269,115.31,266.82,116.65Z" fill="#68e1fd"></path><path d="M253.53,106.71q-15.23,9.28-30.17,19c-2.14,1.4-.21,4.9,2,3.49q14.93-9.75,30.17-19C257.68,108.87,255.74,105.37,253.53,106.71Z" fill="#68e1fd"></path><path d="M260,112.15q-5.27,3.21-10.49,6.48a33.42,33.42,0,0,1,3.38,2.6q4.52-2.81,9.07-5.59C264.13,114.31,262.19,110.81,260,112.15Z" fill="#ff8f6f"></path><path d="M243.48,131.27q-3.42,2.2-6.82,4.42c-2.14,1.4-.21,4.9,2,3.49q4.23-2.77,8.5-5.49C245.88,132.91,244.64,132.15,243.48,131.27Z" fill="#fff"></path><polygon points="193.61 141.97 201.2 160.94 213.56 155.53 205.43 136.4 193.61 141.97" fill="#3e2928"></polygon><path d="M202.83,159.71c-.25-.85-1.67-5.12-1.85-6,.41-1.23-.23-2.57-.41-3.92-.05-.42-.46-.51-.8-.19-.73.69-.14,1.69-.37,2.81-.48-.71-.95-1.44-1.37-2.19a3.78,3.78,0,0,0-.56-.84c-.28-.54-.69-1-1.34-.88a.51.51,0,0,0-.37.48,3.3,3.3,0,0,0,0,.53.78.78,0,0,0-.81.66,2.75,2.75,0,0,0,.36,1.7.92.92,0,0,0-.42,1.31,6.52,6.52,0,0,0,1.29,1.45,7,7,0,0,1,1.38,1.78.43.43,0,0,0,.2.2c.64,1.46,1.67,3.9,1.82,4.31A26.55,26.55,0,0,1,202.83,159.71Z" fill="#ffb5a9"></path><path d="M226.26,149A30.08,30.08,0,0,1,235,161.81c3.08,8.49-4.61,22.38-4.61,22.38l-12-9.46" fill="#ff8f6f"></path><path d="M227.58,261.31l3.25-1.8-.82-4.64s-4.84.45-5.26,2.18" fill="#003b94"></path><path d="M226.36,261.24c-.73-.45-1.5-.84-2.25-1.25-1.88-1-4.59-2.09-5.74-4a2.24,2.24,0,0,1,.15-2.52c1.71-2.06,5.42,1.32,7.33-1,.38-.45.55-7.6.55-7.6l7.24,2s1.23,14.36,1.09,15.25-2.63,1.74-2.63,1.74A6.41,6.41,0,0,1,230,263c-.76-.55-.07-7.29-1-6.34s-1.39,4.63-1.39,4.63A5,5,0,0,1,226.36,261.24Z" fill="#68e1fd"></path><path d="M213.72,268.25l3.25-1.8-.82-4.64s-4.84.45-5.26,2.18" fill="#003b94"></path><path d="M212.5,268.18c-.73-.45-1.5-.84-2.25-1.25-1.88-1-4.59-2.09-5.74-4a2.24,2.24,0,0,1,.15-2.52c1.71-2.06,5.42,1.32,7.33-1,.38-.45.55-7.6.55-7.6l7.24,2S221,268.15,220.87,269s-2.63,1.74-2.63,1.74a6.41,6.41,0,0,1-2.09-.81c-.76-.55-.07-7.29-1-6.34s-1.39,4.63-1.39,4.63A5,5,0,0,1,212.5,268.18Z" fill="#68e1fd"></path><path d="M237.31,221.57l2.09,28.52s-3.39,4.69-14.79,2.08h0l-.11-19.23" fill="#007f68"></path><path d="M224.11,227.22c.25,2.46,0,29.55,0,29.55s-3.15,5.9-16.88,0l.19-23" fill="#007f68"></path><path d="M236.14,228.88a55.6,55.6,0,0,1-11.25,5l-.09,0a.77.77,0,0,0-1,.39,59.44,59.44,0,0,1-7.38,1.67c-3.2.51-5.86-1.86-9.14-2,0-12.59-.06-48.47,5.3-56l15.85-5.3c.07,1.31,7.7,10.15,7.52,20.92a231.81,231.81,0,0,0,1.44,28.67" fill="#007f68"></path><path d="M211.07,163.35l1.46,14.45s11.84.48,16.94-3V162.5" fill="#ff8f6f"></path><path d="M220.38,149.8s-7.38,1.88-9.65,5.51A63.93,63.93,0,0,0,207,163l-4.13-6.42s-5,1.54-7,4c0,0,6,13,11.13,14.12s15.65-5.47,15.65-5.47-3.83,1.43-4.05-2.47" fill="#ff8f6f"></path><path d="M215,164.07a11.33,11.33,0,0,0,3.54-5c.67-2.28-.17-4.29-1-6.42a20.68,20.68,0,0,1-1.46-6.6c-.07-2.23.19-4.45.34-6.67a.64.64,0,0,0,0-.29c.74-2.51,2.28-4.63,5.3-4.88,7.81-.66,8.25,8,8.19,11.5s-.43,5.89,2.16,7.37,4.46,5.32,2,8.44-.25,2,1.39,4.75,1.22,6.23-2.16,7.48-19.1-1.1-20.55-2.56A3,3,0,0,1,212,169,8.24,8.24,0,0,1,215,164.07Z" fill="#ba4f32"></path><path d="M223.73,196.88v59a.5.5,0,0,0,1,0v-59A.5.5,0,0,0,223.73,196.88Z" fill="#3e2928"></path></g></g></svg>