<svg id="Layer_2" data-name="Layer 2" xmlns="http://www.w3.org/2000/svg" xmlns:xlink="http://www.w3.org/1999/xlink" viewBox="0 0 400 300" width="406" height="306" class="illustration styles_illustrationTablet__1DWOa"><defs><linearGradient id="linear-gradient" x1="143.36" y1="251.63" x2="164.93" y2="223.5" gradientUnits="userSpaceOnUse"><stop offset="0" stop-color="#666" stop-opacity="0"></stop><stop offset="1" stop-color="#4d4d4d"></stop></linearGradient></defs><title>PP</title><path d="M194.28,287,14.56,180.76c-5.72-3.21-10.63-8.49-5.05-11.94l180.37-104c2.71-1.68,6.82-2.78,9.57-1.18L388.11,173.18c5.72,3.32,6.75,12.6,1,15.93L218,286.81A23.9,23.9,0,0,1,194.28,287Z" fill="#ff9f9f"></path><polyline points="155.5 172.76 82.5 215.11 173.49 274.69 252.01 225.84" opacity="0.32" fill="url(#linear-gradient)"></polyline><polyline points="328.06 176.27 328.06 180.22 326.06 182.66" fill="#adcee1"></polyline><path d="M248.67,128.17,325.8,176a4.78,4.78,0,0,1-.16,8.22l-117,66.2a10.72,10.72,0,0,1-10.71-.09l-76.77-45.13c-5.58-4.58-5.16-13.21,0-13.57L237.52,128A10.88,10.88,0,0,1,248.67,128.17Z" fill="#88d3d8"></path><path d="M248.67,124.88l77.12,47.8a4.78,4.78,0,0,1-.16,8.22l-117,66.2a10.72,10.72,0,0,1-10.71-.09l-76.77-45.13a6,6,0,0,1,0-10.28l116.35-66.9A10.88,10.88,0,0,1,248.67,124.88Z" fill="#fff"></path><path d="M245.53,118.34S213.5,15,213.7,15s-1-4.59-6.72-2L84.07,85.32s-6,2.41-4.8,8,31.31,101.15,31.31,101.15a5.19,5.19,0,0,0,5.81,2c3.74-1.16,126.26-72.33,126.26-72.33S246.73,122.59,245.53,118.34Z" fill="#053855"></path><polygon points="211.66 22.49 85.8 95.87 111.9 183.51 239.39 112.32 211.66 22.49" fill="#68e1fd"></polygon><path d="M253.41,135.83l28.2,17.57a3.4,3.4,0,0,1-.11,5.84l-101.21,57.7a10,10,0,0,1-9.95,0c-6.51-3.79-17.71-10.62-24.56-14.83a4.14,4.14,0,0,1,.08-7.11c20.47-11.91,87.25-50.74,101.87-59.22A5.51,5.51,0,0,1,253.41,135.83Z" fill="#68e1fd"></path><path d="M251.9,183.51,216.54,203.4a3.53,3.53,0,0,0-.05,6.13l20.79,12.17a4.69,4.69,0,0,0,4.7,0l36.18-20.63a3,3,0,0,0,0-5.13l-21.63-12.43A4.69,4.69,0,0,0,251.9,183.51Z" fill="#68e1fd"></path><path d="M253.41,135.83l28.2,17.57a3.4,3.4,0,0,1-.11,5.84l-101.21,57.7a10,10,0,0,1-9.95,0c-6.51-3.79-17.71-10.62-24.56-14.83a4.14,4.14,0,0,1,.08-7.11c20.47-11.91,87.25-50.74,101.87-59.22A5.51,5.51,0,0,1,253.41,135.83Z" fill="#053855" opacity="0.1"></path><path d="M251.9,183.51,216.54,203.4a3.53,3.53,0,0,0-.05,6.13l20.79,12.17a4.69,4.69,0,0,0,4.7,0l36.18-20.63a3,3,0,0,0,0-5.13l-21.63-12.43A4.69,4.69,0,0,0,251.9,183.51Z" fill="#053855" opacity="0.1"></path><path d="M204.22,55.28l-84,47.53a2.87,2.87,0,0,0-1.46,2.5h0a2.87,2.87,0,0,0,4.28,2.51l84-47.2a2.87,2.87,0,0,0,1.47-2.51v-.32A2.87,2.87,0,0,0,204.22,55.28Z" fill="#368f99"></path><path d="M283.21,188.58l-44.44-25.65c-16.08-7.58-18.21-30.84-18.21-30.84V86c0-10.3-9.71-22.06-20-23.84-2.18-.38-6.63-1-8.72.18L126.42,99.28c29.86,2.53,29.15,27.15,29.15,27.15s0,45.7.46,49.15a31.66,31.66,0,0,0,17.59,24.57h0l43.71,25.69Z" fill="#fcee21"></path><path d="M164.25,142.59l26.53-15.47a1.13,1.13,0,0,0-1.14-1.94l-26.53,15.47a1.13,1.13,0,0,0,1.14,1.94Z" fill="#f15a24"></path><path d="M164.19,148.14l26.53-15.47a1.13,1.13,0,0,0-1.14-1.94L163.05,146.2a1.13,1.13,0,0,0,1.14,1.94Z" fill="#f15a24"></path><path d="M164.19,153.69l26.53-15.47a1.13,1.13,0,0,0-1.14-1.94l-26.53,15.47a1.13,1.13,0,0,0,1.14,1.94Z" fill="#f15a24"></path><path d="M164.19,159.23l26.53-15.47a1.13,1.13,0,0,0-1.14-1.94l-26.53,15.47a1.13,1.13,0,0,0,1.14,1.94Z" fill="#f15a24"></path><ellipse cx="205.61" cy="127.33" rx="13.03" ry="8.12" transform="translate(17.63 279.49) rotate(-70.76)" fill="#fff"></ellipse><path d="M205.61,127.33V113.15s7.51-2.54,9.73,8.15Z" fill="#053855"></path><path d="M205.61,127.33l7,6.55s3.24-2.53,2.76-12.59Z" fill="#ff9f9f"></path><polygon points="216.69 210.6 222.91 215.11 264.16 192.46 243.13 179.22 245.29 190.94 226.32 190.03 226.84 202.38 215.58 202.79 216.69 210.6" fill="#fbb03b"></polygon><polyline points="216.67 210.69 215.58 202.79 227.07 202.47 226.27 189.79 244.57 191.74 243.13 179.22" fill="none" stroke="#2e3192" stroke-miterlimit="10"></polyline><ellipse cx="226.84" cy="202.38" rx="2.16" ry="1.26" fill="#053855"></ellipse><ellipse cx="226.32" cy="190.03" rx="2.16" ry="1.26" fill="#053855"></ellipse><ellipse cx="244.18" cy="191.29" rx="2.16" ry="1.26" fill="#053855"></ellipse><ellipse cx="242.65" cy="179.38" rx="2.16" ry="1.26" fill="#053855"></ellipse><path d="M218,218.9l49.88-28.21a.75.75,0,0,0-.76-1.3L217.25,217.6a.75.75,0,0,0,.76,1.3Z" fill="#2e3192"></path><ellipse cx="216.79" cy="210.85" rx="2.16" ry="1.26" fill="#053855"></ellipse><path d="M176.13,186.88l19.32,11.42A1.5,1.5,0,0,0,197,195.7l-19.32-11.42a1.5,1.5,0,0,0-1.51,2.59Z" fill="#2e3192"></path><path d="M188.13,186.4l13.36,7.9A1.5,1.5,0,0,0,203,191.7l-13.36-7.9a1.5,1.5,0,0,0-1.51,2.59Z" fill="#2e3192"></path><path d="M198,184.31l9.66,5.71a1.5,1.5,0,0,0,1.51-2.59l-9.66-5.71a1.5,1.5,0,0,0-1.51,2.59Z" fill="#2e3192"></path><line x1="203.32" y1="173.85" x2="226.57" y2="160.69" fill="none" stroke="#da2e81" stroke-miterlimit="10"></line><line x1="207.45" y1="176.75" x2="230.7" y2="163.59" fill="none" stroke="#da2e81" stroke-miterlimit="10"></line><line x1="210.33" y1="180.01" x2="233.58" y2="166.86" fill="none" stroke="#da2e81" stroke-miterlimit="10"></line><line x1="214.46" y1="182.91" x2="237.71" y2="169.76" fill="none" stroke="#da2e81" stroke-miterlimit="10"></line><path d="M169.53,180.29l49.88-28.21c3.36-1.9.34-7.09-3-5.18L166.5,175.11c-3.36,1.9-.34,7.09,3,5.18Z" fill="#a2c609"></path><path d="M199.37,81.49l-40.67,23c-2.82,1.6-.29,6,2.54,4.35l40.63-23C201.53,84,200.85,82.21,199.37,81.49Z" fill="#fff"></path><path d="M185.49,99l-24.15,13.66c-2.82,1.6-.29,6,2.54,4.35l23-13A10.79,10.79,0,0,0,185.49,99Z" fill="#ff9f9f"></path><path d="M198.26,105.76c-.1-.62-.44-3.16-1.36-3.27l-.14,0-34.27,19.38c-2.82,1.6-.29,6,2.54,4.35l33.4-18.89C198.4,106.78,198.34,106.26,198.26,105.76Z" fill="#053855"></path><ellipse cx="208.62" cy="79.77" rx="2.36" ry="3.25" fill="#fff"></ellipse><ellipse cx="211.75" cy="88.77" rx="2.36" ry="3.25" fill="#ff9f9f"></ellipse><ellipse cx="212.27" cy="99.01" rx="2.36" ry="3.25" fill="#053855"></ellipse></svg>